<?xml version="1.0" encoding="UTF-8"?>
<svg id="Layer_1" data-name="Layer 1" xmlns="http://www.w3.org/2000/svg" viewBox="0 0 511.61 506.87">
  <g>
    <path d="m.12,248.92c.95-20.61,3.09-40.61,9.05-59.94C39.99,89.05,105.17,25.46,208.48,4.85c69.4-13.84,133.52,2.47,191.95,41.9,2.01,1.35,3.87,2.91,5.31,5.62-7.89-2.82-15.73-5.81-23.68-8.44-48.01-15.86-96.6-22.56-146.28-8.27-56.93,16.37-96.69,54.47-128.44,102.43-22.47,33.95-35.86,71.2-36.57,112.04-.72,41.52,11.65,79.7,33.87,114.68,25.92,40.81,58.05,75.13,102.54,96.03,36.44,17.12,74.75,21.6,114.57,16.45,29.19-3.78,57-12.21,84.51-22.23-40.29,31.93-86.58,48.81-137.97,51.3-10.83.52-21.21.89-32.57-.12-9.1-.81-17.05-2.1-24.99-3.31-93.28-14.16-178.25-91.85-201.66-183.71-5.05-19.81-8.02-39.86-8.96-60.13-.15-3.19-.17-6.38,0-10.16Z" style="fill: #064e69; stroke-width: 0px;"/>
    <path d="m393.71,387.67c63.39-53.82,89.08-166.74,16.2-250.04-52.75-60.29-125.42-79.87-203.27-51.09-6.88,2.54-13.66,5.38-22.27,8.78,3.78-6.77,8.49-10.26,13.24-13.51,21.33-14.62,45.68-21.46,70.69-25.66,36.53-6.14,73.12-7.45,108.45,6.38,75.63,29.62,122.85,83.65,133.09,164.89,13.73,108.9-53.27,201.76-160.82,224.43-57.79,12.18-111.5-.35-159.57-35.25-.72-.52-1.4-1.12-2.02-1.76-.29-.3-.38-.79-.98-2.11,74.55,34.94,144.84,27.95,207.27-25.06Z" style="fill: #92c3e8; stroke-width: 0px;"/>
  </g>
  <g>
    <path d="m142.25,328.29c-23.94-6.48-32.74-26.24-33.87-54.13-.67-16.53,1.85-32.61,8.16-47.68,7.25-17.32,16.4-33.72,33.59-43.43,13.7-7.74,38.71-9.23,51.74,4.88,2.11,2.29,4.61,7.48,4.56,11.55-7.79-10.54-17.53-16.86-30.5-17.14-14.89-.32-26.53,6.59-35.67,17.56-16.98,20.36-25.87,43.97-25.72,70.73.06,10.99,1.38,21.84,5.28,32.23,4.9,13.04,14.17,21.05,27.57,24.34.54.13,1.04.46,1.66.89-2.1.19-4.32.19-6.81.19Z" style="fill: #064e69; stroke-width: 0px;"/>
    <path d="m155.69,202.77c10.67-8.01,21.82-10.8,34.15-4.58,7.35,3.7,10.39,12.57,7.44,21.76-2.68,8.34-10.71,13.52-19.45,11.96,5.74-1.91,10.47-4.53,13.24-9.35,2.73-4.75,4.4-10.22.52-14.95-4.96-6.06-12.09-6.98-19.34-5.71-8.58,1.5-14.87,7.02-20.04,13.58-8.44,10.7-13.22,23.08-16.42,36.39-2.89,12-3.78,23.96-1.39,35.85,4.41,21.93,17.82,28.35,39.74,20.92,2.52-.85,4.99-1.86,7.73-2.88-3.98,7.01-20.18,12.1-30.58,10.22-10.55-1.9-16.46-8.48-20.18-18.13-5.96-15.46-5.65-31.34-2.11-46.89,4.18-18.34,11.59-35.44,26.67-48.18Z" style="fill: #064e69; stroke-width: 0px;"/>
    <path d="m190.3,195.7c-13.33-5.77-29.3-2.5-39.85,7.74-12.13,11.76-19.85,26.13-25.15,41.99-.51,1.51-.78,3.12-1.36,4.6-.52,1.32-1.33,2.53-2.19,4.11-1.11-8.75,1.34-16.63,3.99-24.45,6.64-19.59,17.56-35.62,37.8-42.79,11.88-4.22,23.97-4.03,33.88,5.13,8.54,7.9,10.52,20.06,6.05,30.33-3.25,7.47-10.14,13.02-15.77,12.17,8.33-5.74,13.86-12.73,12.4-23.29-.91-6.57-4.05-11.77-9.79-15.54Z" style="fill: #92c3e8; stroke-width: 0px;"/>
    <path d="m162.99,323.58c-8.68,2.18-16.49.81-24.7-4.54,19.76,3.85,36.09-.7,49.78-14.39-.57,7.11-12.23,15.9-25.08,18.94Z" style="fill: #92c3e8; stroke-width: 0px;"/>
  </g>
  <g>
    <path d="m305.29,318.14c-17.13-7.03-24-21.93-29.45-37.88-.54-1.59-1.22-2.46-2.93-1.68-8.12,3.7-16.68,2.93-25.13,2.14-10.62-.99-12.81.25-17.05,9.97-3.6,8.25-8.3,15.99-11.86,25.8-.7-7.57.55-13.44,2.87-19.11,2.31-5.66,4.76-11.26,7.18-16.95-2.03-.84-2.5.6-2.96,1.73-3.67,9.03-7.5,18.01-9.9,27.5-.19.74-.46,1.47-.97,3.03-1.98-5.99-2.01-11.29-1.24-16.55.76-5.18,1.99-10.3,3.13-16.06-3.39,4.22-3.71,9.2-5.9,13.41-3.47-4.5-1.42-16.35,7.37-18.94,6.37-1.88,12.91-.9,19.37-.6,10.51.49,20.94,2.45,31.52,1.87,1.58-.09,4.3.56,4.11-1.77-.23-2.77-2.46-.61-3.76-.5-9.19.74-18.05-1.31-26.93-3.17-2.19-.46-4.34-1.08-6.52-1.59-1.24-.29-1.62-1.24-1.57-2.28.07-1.35,1.27-.93,2.02-.94,10.77-.04,21.53-.03,32.3-.04.85,0,1.7,0,2.54,0,.22-1.18-.51-1.42-1.11-1.41-11.95.19-23.53-3.58-35.44-3.52-12.26.06-23.15,4.01-32.03,12.81-.55.54-1.33.84-2.15,1.27-.15-.18-.15-.37-.15-.71,4.18-7.06,9.45-12.52,16.99-16.14,5.48-2.63,6.76-9.1,9.24-14.25,7.08-14.72,14.65-29.18,22.72-43.37.44-.78,1.18-1.38,2.44-2.82-.26,5.32-1.58,9.46-2.88,13.55-4,12.6-10.23,24.2-16.28,35.88-.83,1.6-1.67,3.2-2.4,4.85-.37.83-1.63,1.87-.45,2.62,1.2.77,2.13-.46,2.78-1.4,2.9-4.14,5.64-8.4,8.64-12.46,1.6-2.16,2.9-4.65,5.99-6.62-1.59,4.22-2.91,7.8-4.27,11.36-.87,2.3-1.83,4.56-2.67,6.87-.28.77-1.25,1.82.1,2.41,1.09.47,2.47.46,3.09-.77,8.27-16.21,18.37-31.84,16.67-51.3-.1-1.12-.38-2.22-.73-4.25-1.29,5.14-2.36,9.41-3.43,13.67-1.9-11.55,1.92-23.48-3.57-34.68,3.35,1.88,5.17,4.81,6.71,7.9,8.94,17.87,11.59,37.39,14.73,56.78,3.01,18.53,5.61,37.15,14.22,54.22,4.38,8.68,10.53,15.79,18.09,21.98-.25.13-.58.13-1.06.13Zm-35.43-62.34c-1.75-11.14-3.5-22.28-5.47-34.86-3.86,12.58-9.1,23.02-13.86,33.66-.63,1.41.71,1.42,1.43,1.5,5.29.59,10.59,1.11,15.88,1.6,1.04.1,2.11-.01,2.02-1.9Z" style="fill: #064e69; stroke-width: 0px;"/>
    <path d="m299.04,276.56c1.6,8.86,3.16,17.55,4.72,26.23-5.77-7.28-8.7-15.63-10.89-24.32-4.93-19.52-5.46-39.75-9.55-59.41-1.78-8.56-4.55-16.83-7.93-25.13,2.3-.12,3.01,1.39,3.78,2.69,8.96,15.17,12.25,32.13,15.23,49.15,1.78,10.16,3.08,20.4,4.64,30.79Z" style="fill: #064e69; stroke-width: 0px;"/>
    <path d="m260.45,179.25c11.39,9.58,15.47,22.9,18.8,36.4,3.91,15.85,7.09,31.87,6.94,48.33-.01,1.17-.27,2.34-.55,4.64-3.03-6.56-4.45-12.42-5.81-18.27-3.67-15.82-5.65-32.01-10.78-47.51-2.47-7.45-5.98-14.4-9.49-21.37-.41-.82-.75-1.67-1.1-2.45.88-.81,1.35-.1,2,.23Z" style="fill: #92c3e8; stroke-width: 0px;"/>
    <path d="m293.91,292.47c4.35,7.86,8.57,15.61,15.95,20.96.58.42,1.23,1.09.66,1.79-.29.35-1.26.47-1.76.27-8.9-3.61-19.13-17.12-17.83-27.87,1.69,1.22,1.96,3.18,2.98,4.85Z" style="fill: #92c3e8; stroke-width: 0px;"/>
    <path d="m219.64,267.38c.78.33,1.89.62.68,1.39-6.11,3.87-12.29,7.65-18.52,11.5-.19-5.82,10.37-13.45,17.84-12.88Z" style="fill: #92c3e8; stroke-width: 0px;"/>
  </g>
  <g>
    <path d="m372.49,289.98c-9.51-8.19-18.78-16.41-30.22-20.16-3.07-1.01-2.87-3.38-2.41-6.27,2.46-15.46,6.54-30.44,9.69-45.7,1.84-8.9,2.84-18.1,2.75-27.34-.02-2.16-.57-4.31-.91-6.7,2.11.43,2.45,2.59,3.13,4.2,3.13,7.5,2.57,15.57,2.39,23.54-.27,12.23-4.59,23.25-7.77,34.61-.16.57-.31,1.15.13,1.93,6.84-14.44,8.71-30.62,11.44-48.06,1.86,6.42,2.62,11.43,2.13,16.65-.48,5.04-.99,10.08-1.58,16.12,18.94-16.62,41.34-25.87,57.33-46.29-.92,6.13-4.1,10.68-7.54,14.84-7.92,9.54-17.76,15.99-27.63,22.3-13.34,8.52-24.7,19.9-35.13,32.65-.91,1.11-1.65,2.45-2.3,3.8-2.17,4.54-1.64,6.41,2.58,6.97,14.89,1.99,24.56,13.66,34.5,24.86,3.02,3.4,5.95,6.89,8.89,10.38.84,1,1.8,1.99,1.63,4.26-8.27-3.57-14.23-10.68-21.11-16.57Z" style="fill: #064e69; stroke-width: 0px;"/>
    <path d="m413.02,216.87c1.79-1.99,3.43-3.81,5.26-5.86.27,4.76-1.96,7.91-4.45,10.89-14.13,16.95-31.09,29.04-49.31,38.96-1.43.78-2.86,1.55-5.26,2.85,26.61,9.37,42.26,33.36,60.07,54.22-10.39-3.76-18.05-12.05-25.89-20.09-8.21-8.42-15.66-17.88-24.88-24.95-4.22-3.24-8.68-5.86-13.95-7.14,1.58-3.3,3.82-5.47,6.09-7.58,9.09-8.51,19.37-14.93,29.01-22.45,7.8-6.08,16.07-11.4,23.31-18.85Z" style="fill: #064e69; stroke-width: 0px;"/>
    <path d="m378.49,309.69c-9.32-7.81-17.28-17.12-25.79-25.66-2.4-2.4-3.66-2.65-4.59,1.39-1.13,4.91-2.62,9.72-4,14.55-.28.96-.23,2.33-1.9,2.5-.91-5.43.29-10.64,1.22-15.85.23-1.3.56-2.57.91-3.84,1.03-3.81.15-6.49-3.21-7.92-1-.43-2.23-.67-2.76-2.42,3.97-.84,7.3,1.02,10.57,2.85,9.47,5.29,17.33,13.22,25.1,21.25,11.62,12.03,23.77,22.91,39.47,26.72,1.12.27,2.2.62,3.7,0-2.6-5-7.95-1.32-10.78-4.85,2.43-1.55,21.74,3.56,23.6,6.4-5.59,3.03-11.42,3.3-17.27,2.45-12.82-1.85-23.76-8.86-34.25-17.58Z" style="fill: #92c3e8; stroke-width: 0px;"/>
    <path d="m339.05,223.39c3.71-14.42,8.28-28.36,7.42-44.2,2.83,2.5,2.71,5.64,2.9,8.6.95,14.69-2.5,28.51-5.97,42.38-3.98,15.9-9.16,31.46-10.75,48.09-1.38,14.48-.36,28.55,5.85,41.84-1.83.24-2.53-1.29-3.31-2.56-7.32-12.05-9.04-25.63-7.86-39.95,1.55-18.66,7.48-36.05,11.7-54.2Z" style="fill: #064e69; stroke-width: 0px;"/>
    <path d="m373.79,241.14c-1.53.84-2.88,1.55-4.23,2.27,5.82-6.36,11.11-13.24,17.95-18.15,12.04-8.63,23.26-18.48,32.37-32.37.51,6.4-1.27,11.34-3.82,15.85-5.42,9.61-13.85,14.99-22.02,20.69-6.43,4.48-13.05,8.5-20.25,11.71Z" style="fill: #92c3e8; stroke-width: 0px;"/>
    <path d="m335.54,295.73c.07-2.66.57-4.87,1.82-7.1,2.19,10.58,2.39,21.69,6.72,31.95-5.97-1.93-9.15-11.57-8.54-24.85Z" style="fill: #92c3e8; stroke-width: 0px;"/>
    <path d="m352.82,265c-1.77,1.92-3.41,1.3-5.34.28,2.4-5.8,6.35-9.82,9.91-14.19.59-.72,1.71-1.32,2.54-.21.8,1.06-.08,1.84-.61,2.55-2.56,3.46-4.51,7.37-6.5,11.57Z" style="fill: #92c3e8; stroke-width: 0px;"/>
  </g>
</svg>