<?xml version="1.0" encoding="UTF-8"?>
<svg id="Layer_1" data-name="Layer 1" xmlns="http://www.w3.org/2000/svg" viewBox="0 0 721.63 70.22">
  <g>
    <path d="m571.69,5.91c-1.02,6.82-7.24,11.67-11.92,11-.84-.12-.85.64-.86,1.47-.19,14.06-3.36,27.2-6.73,40.27-.04.16-.14.29-.37.74-.15-3.07.15-5.75.52-8.41,1.46-10.4,3.89-20.5,5.3-30.92.04-.31.12-.63.09-.92-.08-.71.78-1.96-.26-2.03-.86-.06-.46,1.34-.47,2.07-.11,5.74-1.86,10.9-3.1,16.23-.65,2.79-1.41,5.51-2.54,8.72.12-9.32,2.5-17.55,2.65-26.25-.35,1.98-.7,3.96-1.05,5.94-1.13,6.34-2.77,12.51-3.64,18.94-1.03,7.66-1.64,16.08,1.16,25.68-.86-.87-1.23-1.88-1.62-2.85-2.37-5.99-2.67-12.41-2.01-18.99,1-9.98,3.35-19.52,5.28-29.2.21-1.07.03-1.39-.68-1.65-3.81-1.43-7.65-2.25-11.7-1.7-.09.01-.09-.12-.02-.18,1.11-1.03,2.23-1.67,3.48-1.98,3.11-.77,6.1.42,9.13.97,3.31.6,6.61,1.36,9.95.85,4.24-.65,7.25-3.92,9.43-8.77v.97Z" style="fill: #0073bc; stroke-width: 0px;"/>
    <path d="m570.85,2.8c.57,3.8-2.39,7.64-5.95,7.48,1.99-2.56,4.21-4.47,5.8-7.39.01-.09.11-.09.16-.09Z" style="fill: #0073bc; stroke-width: 0px;"/>
    <path d="m550.64,56.74c.44,4.04.78,7.98,1.71,11.94-2.54-1.72-3.76-10.81-2.09-15.23.14,1.18.25,2.17.37,3.28Z" style="fill: #0073bc; stroke-width: 0px;"/>
    <path d="m559.67,4.42c2.71.32,5.34.64,8.26.99-1.81,1.44-3.44,2.35-5.28,2.49-4.27.33-8.44-.78-12.62-1.73-1.81-.41-3.61-.55-5.73-.19,1.57-2.24,3.37-2.5,5.16-2.64,3.41-.27,6.77.4,10.22,1.07Z" style="fill: #0073bc; stroke-width: 0px;"/>
    <path d="m554.84,11.7c-3.25-.54-6.36-1.74-9.61-1.12-1.64.31-3.29.46-5.05.7,1.69-2.61,3.79-4,6.2-4.14,4.49-.26,8.78,1.42,13.06,3.01.37.14.71.46.81,1.2-1.78.42-3.55.63-5.42.35Z" style="fill: #0073bc; stroke-width: 0px;"/>
  </g>
  <g>
    <path d="m264.03,16.69c-.46,5.38-1.07,10.67-2.71,15.72-3.18,9.79-6.55,19.51-9.82,29.27-.69,2.06-1.29,4.15-2.21,7.11-.39-5.88.73-10.52,2.28-15.11,4.02-11.89,9.1-23.46,10.56-36.14.44-3.87.71-7.75.49-11.88.91,2.52,1.11,4.94,1.38,7.43.04,1.22.04,2.37.04,3.6Z" style="fill: #0073bc; stroke-width: 0px;"/>
    <path d="m223.82,56.86c-.07-.64-.11-1.19-.21-2.58,1.2,3.39,2.12,6,3.36,9.5-.82-12.52,4.32-22.31,9.3-32.74-1.66,8.96-5.11,16.87-6.37,25.35,4.6-15.55,12.98-30.13,11.44-47.77,2.54,12.55,4.39,24.67,5.87,37.69,3.92-11.78,6.61-23.1,12.22-33.99-1.28,8.11-3.96,15.14-6.12,22.33-2.16,7.2-5.67,13.99-6.23,22.15-3.03-10.74-3.34-21.43-4.98-31.93v18.07l-.31.02c-.46-2.62-.92-5.25-1.39-7.96-2.81,3.35,1.16,19.76,7.79,32.63-3.99-.86-6.86-8.17-10.5-26.96-3.04,9.13-6.74,17.64-9.23,27.16.13-2.2.23-3.86.34-5.53-.07-.01-.15-.02-.22-.03-.32,1.32-.64,2.65-1.01,4.16-2.34-2.84-3.3-6.04-3.72-9.55Z" style="fill: #0073bc; stroke-width: 0px;"/>
    <path d="m234.3,29.55c-2.9,8.87-6.57,17.42-8.32,27.08-3.36-15.34-3.15-30.73-6.36-45.65,1.41.66,2.99,5.11,3.84,11.08.58,4.03,1.05,8.07,1.52,12.11.47,4.02.87,8.04,1.35,12.55,3.72-10.69,6.31-21.33,11.29-31.32-.61,4.99-1.87,9.55-3.33,14.14Z" style="fill: #0073bc; stroke-width: 0px;"/>
    <path d="m227.02,67.07c.04.21.03.37.03.53-.22-.12-.48-.21-.65-.38-5.65-5.72-7.41-13.17-8.82-20.78-1.94-10.43-1.79-21.06-2.99-31.55-.48-4.22-1.23-8.41-1.87-12.69,2.59,5.52,3.71,11.4,4.39,17.33,1.3,11.28.91,22.77,3.98,33.83,1.34,4.83,3.56,9.27,5.94,13.71Z" style="fill: #0073bc; stroke-width: 0px;"/>
    <path d="m221.28,43.93c-1.95-7.74-2.41-15.64-3.31-23.48-.62-5.41-1.86-10.68-3.29-16.3,2.54,2.43,3.37,5.36,4.18,8.24,2.86,10.15,3.65,20.5,2.75,31-.02.21-.12.42-.19.62,0,0-.08-.02-.14-.09Z" style="fill: #0073bc; stroke-width: 0px;"/>
    <path d="m247.19,64.71c-1.9-3.21-3.1-6.58-3.34-10.77,2.09,3.01,2.55,6.25,4.23,9.91-1.49-12.88,4.48-22.75,8.86-33.11-2.24,11.8-6.84,22.97-8.74,36.09-.55-1.18-.76-1.62-1.01-2.12Z" style="fill: #0073bc; stroke-width: 0px;"/>
    <path d="m238.96,12.39c0-1.92,0-3.76,0-5.6,1.49.74,1.54,2.36,1.55,3.76.04,3.87.06,7.79-2.26,12.38.28-4.23.49-7.34.7-10.54Z" style="fill: #0073bc; stroke-width: 0px;"/>
    <path d="m261.47,7.03c.7,5.21-.16,10.12-2.07,15.63.42-6.59.8-12.46,1.2-18.68.33,1.16.59,2.06.87,3.04Z" style="fill: #0073bc; stroke-width: 0px;"/>
  </g>
  <g>
    <path d="m274.77,27.97c.91-3.69,1.78-7.26,2.65-10.83.09-.35.29-.73.24-1.05-.66-4.96,2.43-4.39,4.22-4.77,5.11-1.07,10.27.06,15.41.1,1.9.01,3.79,0,5.64,0-1.81,2.4-4.32,2.41-6.7,2.88-2.44.48-4.9.4-7.36.26-.73-.04-1.46.1-1.33,1.37.62,6.38-1.01,12.27-2.03,18.3-.06.34-.1.7-.16,1.15,5.25.98,10.42,1.89,15.7.76-1.61,2.58-5.36,3.89-9.58,3.55-3.69-.29-7.34-1.25-11.06-.9-4.93.46-9.02,3-12.04,9.01-.13-2.07-.04-3.81.91-4.88,3.39-3.85,4.17-9.41,5.42-14.68.01-.05.03-.1.08-.27Zm1.25,7.8c.82,1.05,1.19.04,1.5-.7.28-.68.36-1.51.6-2.23,1.73-5.25,2.75-10.82,3.96-16.3.15-.66.5-1.61-.25-1.93-.83-.35-.87.78-1.04,1.48-.2.8-.36,1.62-.49,2.45-.92,5.89-3.4,11.06-4.28,17.22Zm10.18-19.78c.2-.85.01-1.34-.68-1.36-.67-.02-.78.64-.74,1.29.13,2.43-.29,4.7-.81,7-.93,4.12-1.97,8.18-3.29,12.17,1.2.43,1.41-.68,1.66-1.58,1.61-5.61,3.04-11.3,3.86-17.52Z" style="fill: #0073bc; stroke-width: 0px;"/>
    <path d="m273.75,66.17c-.64.61-1.21,1.15-1.89,1.8-.12-1.88-.47-3.65.43-5.24.27-.48.15-.83,0-1.3-.49-1.5-.98-3.01-1.39-4.55-1.83-6.95.23-11,5.77-11.86,3.99-.62,7.93-.15,11.9.24,2.8.28,5.61.35,8.43-.42-.66,1.47-2.16,2.61-3.91,2.99-3.05.67-6.11,1-9.2.5-.92-.15-1.73.26-2.22,1.36-.79,1.77-1.39,3.65-1.74,5.91,7.48-1.73,14.78,2.84,22.22.2-.75,2.12-2.96,3.5-5.58,3.86-3.54.49-6.97-.61-10.44-1.12-4.37-.64-8.48.47-12.03,4.32,1.56-.44,3.01-1.77,4.95-.88-1.86,1.46-3.55,2.79-5.31,4.18Zm4.22-12.93c.13-.61.34-1.21.37-1.83.05-1.05,1.07-2.64-.4-3-1.57-.38-3.63-1.77-4.43,1.67-.75,3.24-.16,6.41.51,9.58.64-.29.65-.9.68-1.47.08-1.43.11-2.86.21-4.28.04-.61.07-1.42.67-1.47.68-.05.57.78.64,1.39.12,1.07.27,2.14.42,3.3,1.57-.66.97-2.43,1.32-3.89Z" style="fill: #0073bc; stroke-width: 0px;"/>
    <path d="m307.31,2.8c-3.91,3.27-8.14,2.73-12.34,2.46-5.42-.35-10.85-1.58-16.05,1.99-2.29,1.57-4.16,3.59-5.7,7.11-.04-4.54,1.71-7,3.69-9.15,2.13-2.31,4.67-3.38,7.37-3.51,5.46-.27,10.91.14,16.34.74,2.56.28,5.04-.22,7.85-.81-.52.53-.8.83-1.16,1.18Z" style="fill: #0073bc; stroke-width: 0px;"/>
    <path d="m304.09,5.77c.95-.33,1.81-.64,2.88-1.02-.64,1.89-1.67,2.8-2.82,3.53-3.4,2.18-7.02,2.15-10.65,1.8-2.67-.26-5.28-1.05-8.15-2.22,6.31-2.66,12.61-.18,18.74-2.09Z" style="fill: #0073bc; stroke-width: 0px;"/>
    <path d="m291.46,44.64c-3.84-.02-7.38-1.54-11.47-2.73,6.99-3.04,14.05.91,20.49-3.06-2.03,4.86-5.38,5.58-9.02,5.79Z" style="fill: #0073bc; stroke-width: 0px;"/>
    <path d="m290.46,64.62c-2.6-.57-4.96-1.73-7.78-3.08,6.47-1.91,12.82.93,18.84-2.88-1,4.55-5.56,6.86-11.06,5.96Z" style="fill: #0073bc; stroke-width: 0px;"/>
    <path d="m293.66,67.53c-6.26.23-12.43.98-18.96-1.23,8.03-3.75,15.79.62,23.76-1.34-1.49,2.09-3.14,2.15-4.79,2.57Z" style="fill: #0073bc; stroke-width: 0px;"/>
    <path d="m276.84,9.67c1.11-.53,2.6-1.85,3.13-.56.51,1.23-1.28,1.6-2.03,2.38-1.4,1.47-2.62,3.11-3.5,5.28-1.07-2-.2-4.49,2.4-7.1Z" style="fill: #0073bc; stroke-width: 0px;"/>
    <path d="m270.09,49.05c-.3.48-.54.89-.85,1.42-.7-4,2.59-8.16,6.25-7.89-1.58,2.69-4.17,3.5-5.4,6.47Z" style="fill: #0073bc; stroke-width: 0px;"/>
  </g>
  <g>
    <path d="m310.92,47.4c.59-5.42,1.34-10.64,2.39-15.78,1.19-5.84,2.37-11.69,3.55-17.54.07-.33.05-.69.08-1.15-2.1.33-3.98,1.03-5.48,3.26-.27-1.36.2-2.05.79-2.68,4.88-5.24,13.51-6.05,18.88-1.77,2.21,1.76,3.01,5.23,1.88,8.78-1.43,4.49-4.12,7.52-6.89,10.38-.9.94-1.91,1.69-2.84,2.68,1.43-.38,2.82-.88,4.29-.87,5.13.06,8.74,4.78,8.92,11.77.17,6.33-2.32,11.63-6.65,14.21-.29.18-.62.4-.8-.1-.22-.6.11-.97.44-1.28,2.79-2.6,4.11-6.33,4.66-10.78.69-5.61-2.15-10.68-6.37-10.95-1.94-.13-3.94-.28-5.57,1.68-.13.16-.23.38-.49.81,1.63-.13,2.98-.83,4.41-.95,2.72-.23,4.8,1.02,6.19,4.29,1.31,3.1.81,6.03-.37,8.94-1.18,2.91-3.14,4.54-5.16,6.09-3.18,2.44-6.37,4.85-9.56,7.28-1.65,1.26-2.95,3.16-4.67,4.63,1.99-2.63.41-4.85-.24-7.16-.62-2.21-.98-4.5-1.3-6.92-.07-2.3-.07-4.51-.07-6.87Zm8.08-30.01c-.03-.96.39-1.89.11-3.1-.15.59-.28.97-.33,1.36-.69,5.05-1.83,9.94-2.91,14.85-1.7,7.7-3,15.49-2.89,23.61.05,3.45.66,7.48,1.53,8.88-.69-3.94-.79-7.6.19-11.46,1.23,3.5.44,7.29,1.53,10.69.3-.24.54-.39.74-.6,2.95-3.24,6.19-5.86,9.53-8.25,1.63-1.17,2.83-2.87,3.74-4.98.84-1.95.87-3.98.03-5.98-1.34-3.19-3.58-3.21-5.87-3.08-2.23.13-3.45,1.4-4.12,4.33-.3,1.3-.57,2.61-.85,3.92-.78,3.61-1.57,7.22-2.45,11.29-.55-2.94-.41-5.4-.15-7.82.88-8.03,2.67-15.78,4.11-23.64.83-4.57,1.78-9.11,1.98-13.85.02-.48.16-1.22-.38-1.27-.62-.05-.55.72-.54,1.28.04,2.26-.12,4.5-.39,6.73-.91,7.25-3.2,13.88-4.93,20.76-.13.53-.31.95-.98.91.4-8.3,2.39-16.17,3.29-24.57Zm4.97,13.13c2.57-2.79,4.91-5.85,6.62-9.73,1.24-2.81.82-5.49-1.26-7.06-1.76-1.32-3.7-1.45-5.86-1.54,1.2,6.65.1,12.96-.88,19.6.57-.51.92-.82,1.38-1.27Z" style="fill: #0073bc; stroke-width: 0px;"/>
    <path d="m310.92,12.63c1.71-5.71,5.45-7.3,9.26-8.29,4.49-1.17,8.93-.36,12.72,3.36,2.71,2.65,3.59,6.66,3.15,11.17-.06.61-.29,1.04-.85,1.8-.51-.23-.37-.72-.32-1.26.44-4.31-.61-7.24-3.48-9.14-6.82-4.52-13.36-3.4-19.64,2.07-.22.19-.36.57-.76.51-.08.03-.08-.13-.08-.21Z" style="fill: #0073bc; stroke-width: 0px;"/>
    <path d="m319.82,67.11c-.39,0-.67,0-.96,0,0-.07-.01-.15-.02-.22,2.38-1.07,4.78-2.07,7.15-3.21,4.12-1.99,7.69-4.98,9.95-10.35,3.04-7.23.89-17.55-4.38-20.88-1.24-.78-2.58-.89-4.23-1.07,1.16-1.25,2.11-2.28,3.21-3.47-.08.75-.13,1.24-.19,1.75,2.64-.19,5.66-3.94,6.69-7.92,2.24-8.73-2.02-16.99-9.4-18.34-4.2-.77-8.34-.74-12.41,1.61.56-1.37,1.1-1.99,2.58-3.01,6.74-4.63,18.59-1.15,21.63,10.73,1.47,5.74.38,10.46-2.44,14.76-.95,1.44-1.88,2.9-2.91,4.48,1.44,1.91,2.98,4.17,4.01,6.96,3.17,8.63.55,19.24-6,24.25-3.78,2.89-7.87,4.05-12.28,3.95Z" style="fill: #0073bc; stroke-width: 0px;"/>
    <path d="m316.19,65.47c2.01-1.83,4.12-2.89,6.5-2.93-2.65,2.96-6.04,4.07-8.99,7,.55-1.97,1.51-2.97,2.49-4.08Z" style="fill: #0073bc; stroke-width: 0px;"/>
  </g>
  <g>
    <path d="m392.65,66.72c7.74.37,12.6-6.64,13.29-16.72.54-7.94-.66-15.56-2.11-23.11-.9-4.7-.6-9.25.17-13.8.57-3.39,2.5-5.09,4.82-5.97,3.51-1.32,6.8-.17,9.98,1.91-2.13-.48-4.26-.69-6.41-.56-5.31.3-7.03,4.6-6.57,10.77.62,8.48,2.32,16.73,3.01,25.18.45,5.57-.23,11.15-2.77,15.89-2.55,4.76-6.17,7.05-10.35,7.81-3.99.73-7.74-.1-10.99-3.62-.31-.34-.59-.74-.85-1.22,2.81,1.65,5.61,3.28,8.8,3.43Z" style="fill: #0073bc; stroke-width: 0px;"/>
    <path d="m394.87,20.8c-1.54-10.04,6.82-22.13,13.35-19.63-2.01.64-3.87,1.43-5.54,2.83-3.66,3.06-5.33,7.54-5.24,13.38.06,3.97.83,7.76,1.36,11.61.69,5.07,1.89,9.98,2.27,15.15.25,3.39-.6,6.33-1.61,9.23-1.24,3.58-2.96,6.62-5.74,8.24-.37.21-.76.34-1.42.64,1.32-2.04,2.4-3.85,3.34-5.79,1.35-2.77,2.64-5.61,3.01-8.97.29-2.6-.17-5.16-.45-7.71-.71-6.42-2.07-12.64-3.33-18.98Z" style="fill: #0073bc; stroke-width: 0px;"/>
    <path d="m416.1,5.19c.45.43.86.83,1.44,1.4-1.83-.39-3.44-.75-5.04-1.08-7.22-1.48-11.14,6.35-10.65,14.12.31,4.92,1.15,9.74,1.51,14.64.26,3.49.75,6.99.24,10.53-.08.57-.22,1.12-.44,2.17-.45-2.72-.84-4.96-1.19-7.21-.99-6.33-2.22-12.63-2.89-19.02-.97-9.23,1.59-16.51,9.66-17.86,2.66-.44,5.07.37,7.37,2.32Z" style="fill: #0073bc; stroke-width: 0px;"/>
    <path d="m388.87,62.73c3.88,1.5,7.46.2,11.04-2.06-.73,2.54-3.79,4.55-7.31,4.7-3,.13-5.83-.69-8.08-4.38,1.61.65,2.95,1.19,4.35,1.75Z" style="fill: #0073bc; stroke-width: 0px;"/>
  </g>
  <g>
    <path d="m695.49,66.98c7.74.37,12.6-6.64,13.29-16.72.54-7.94-.66-15.56-2.11-23.11-.9-4.7-.6-9.25.17-13.8.57-3.39,2.5-5.09,4.82-5.97,3.51-1.32,6.8-.17,9.98,1.91-2.13-.48-4.26-.69-6.41-.56-5.31.3-7.03,4.6-6.57,10.77.62,8.48,2.32,16.73,3.01,25.18.45,5.57-.23,11.15-2.77,15.89-2.55,4.76-6.17,7.05-10.35,7.81-3.99.73-7.74-.1-10.99-3.62-.31-.34-.59-.74-.85-1.22,2.81,1.65,5.61,3.28,8.8,3.43Z" style="fill: #0073bc; stroke-width: 0px;"/>
    <path d="m697.71,21.06c-1.54-10.04,6.82-22.13,13.35-19.63-2.01.64-3.87,1.43-5.54,2.83-3.66,3.06-5.33,7.54-5.24,13.38.06,3.97.83,7.76,1.36,11.61.69,5.07,1.89,9.98,2.27,15.15.25,3.39-.6,6.33-1.61,9.23-1.24,3.58-2.96,6.62-5.74,8.24-.37.21-.76.34-1.42.64,1.32-2.04,2.4-3.85,3.34-5.79,1.35-2.77,2.64-5.61,3.01-8.97.29-2.6-.17-5.16-.45-7.71-.71-6.42-2.07-12.64-3.33-18.98Z" style="fill: #0073bc; stroke-width: 0px;"/>
    <path d="m718.93,5.45c.45.43.86.83,1.44,1.4-1.83-.39-3.44-.75-5.04-1.08-7.22-1.48-11.14,6.35-10.65,14.12.31,4.92,1.15,9.74,1.51,14.64.26,3.49.75,6.99.24,10.53-.08.57-.22,1.12-.44,2.17-.45-2.72-.84-4.96-1.19-7.21-.99-6.33-2.22-12.63-2.89-19.02-.97-9.23,1.59-16.51,9.66-17.86,2.66-.44,5.07.37,7.37,2.32Z" style="fill: #0073bc; stroke-width: 0px;"/>
    <path d="m691.71,62.99c3.88,1.5,7.46.2,11.04-2.06-.73,2.54-3.79,4.55-7.31,4.7-3,.13-5.83-.69-8.08-4.38,1.61.65,2.95,1.19,4.35,1.75Z" style="fill: #0073bc; stroke-width: 0px;"/>
  </g>
  <g>
    <path d="m441.51,62.53c.73-.57,1.21-1.31,1.75-1.98,2.14-2.64,3.73-5.64,5.16-8.72,1.06-2.29,1.86-4.7,2.56-7.14.84-2.9,1.41-5.86,1.66-8.87.27-3.34.5-6.7.33-10.06-.21-4.42-.8-8.78-2.25-12.97-.73-2.12-1.74-4.13-3.2-5.82-.94-1.09-2.07-1.96-3.4-2.57-1.91-.87-3.86-.96-5.87-.73-.74.08-1.49.14-2.2.39-1.55.55-3,1.28-4.29,2.36-3.38,2.83-5.5,6.56-7.23,10.58-1.57,3.66-2.6,7.5-3.29,11.44-.27,1.51-.41,3.06-.52,4.6-.19,2.76-.22,5.53-.26,8.29-.04,2.49-.09,4.99-.25,7.48-.04.59-.05,1.18-.17,1.78-.05-.39-.13-.77-.16-1.16-.34-4.77-.97-9.53-.74-14.33.12-2.58.28-5.15.64-7.71.32-2.32.69-4.63,1.28-6.89.74-2.83,1.68-5.58,3.05-8.16,1.23-2.34,2.7-4.49,4.5-6.4,1.09-1.16,2.28-2.18,3.6-3.06.86-.57,1.76-1.04,2.67-1.5.7-.35,1.45-.43,2.15-.7,1.36-.54,2.78-.51,4.14-.28,1.05.18,2.15.35,3.12.94.5.31,1.07.49,1.58.82,1.96,1.27,3.54,2.91,4.77,4.91,1.65,2.69,2.75,5.61,3.4,8.71.45,2.17.67,4.37.89,6.58.29,2.93.38,5.87.29,8.82-.12,3.71-.52,7.39-1.27,11.03-.99,4.86-2.62,9.49-4.84,13.9-1.45,2.88-3.17,5.6-5.24,8.04-1.17,1.38-2.47,2.64-4.11,3.49-1.06.55-2.08,1.17-3.28,1.33-1.61.22-3.24.31-4.77-.27-1.43-.54-2.72-1.38-3.8-2.54-3.07-3.29-4.52-7.38-5.48-11.71-.81-3.68-1.23-7.42-1.47-11.18-.23-3.58-.06-7.12.36-10.67.46-3.96,1.34-7.81,2.71-11.53,1.47-4.01,3.34-7.83,5.88-11.24,1.02-1.37,2.26-2.56,3.65-3.53.57-.39,1.23-.71,1.88-1.01,1.81-.82,3.66-.84,5.53-.48.89.17,1.76.52,2.59.99.77.43,1.5.92,2.19,1.48,1.36,1.09,2.3,2.49,3.08,4.04,1.27,2.52,1.84,5.25,2.26,8.03.36,2.38.54,4.77.58,7.17.03,1.75-.04,3.5-.18,5.25-.27,3.41-.95,6.74-1.8,10.04-.37,1.45-.83,2.87-1.31,4.51-.12-.87.05-1.5.11-2.15.35-3.57.64-7.15,1.25-10.68.36-2.11.65-4.22.61-6.36-.1-4.71-1.07-9.2-3.4-13.31-1.1-1.94-2.53-3.55-4.38-4.7-1.85-1.15-3.91-1.31-5.96-.71-1.05.31-2.11.7-3.03,1.34-1.76,1.22-3.28,2.71-4.44,4.56-2.36,3.74-3.66,7.92-4.66,12.21-.56,2.38-1.01,4.79-1.34,7.22-.3,2.26-.55,4.54-.56,6.83,0,2.26-.06,4.52.18,6.77.33,3.1.89,6.16,1.77,9.15.54,1.84,1.16,3.65,1.98,5.38.53,1.12,1.17,2.2,2.05,3.03,1.05.99,2.28,1.77,3.77,1.85,1,.05,2.01.1,3.01-.11,1.01-.22,1.87-.72,2.76-1.23.83-.48,1.57-1.06,2.26-1.71.37-.35.82-.62,1.12-1.14Z" style="fill: #0073bc; stroke-width: 0px;"/>
    <path d="m438.58,9.47c.8-.11,1.51.04,2.22.16.77.12,1.41.59,2.04,1.02,2.33,1.59,3.53,4.02,4.46,6.62,1.06,2.97,1.46,6.06,1.65,9.21.1,1.73-.03,3.44-.21,5.15-.14,1.3-.2,2.61-.4,3.89-.39,2.48-.8,4.97-1.46,7.4-.74,2.73-1.61,5.42-2.84,7.97-1.21,2.48-2.63,4.83-4.38,6.95-1.06,1.27-2.2,2.46-3.5,3.44-1.08.81-2.33,1.22-3.7.98-.54-.09-.92-.46-1.33-.76-.92-.66-1.44-1.66-1.94-2.7,1.18.83,2.63.58,3.95,1.13.28-.26.69-.3,1.12-.33,1.1-.07,2-.63,2.79-1.39,1.45-1.39,2.37-3.16,3.2-4.97,1.27-2.77,2.36-5.63,3.48-8.46.88-2.23,1.44-4.55,1.91-6.91.72-3.64.86-7.31.65-10.99-.16-2.96-.54-5.9-1.38-8.75-.49-1.65-1.16-3.2-2.48-4.36-.78-.68-1.64-1.16-2.64-1.26-1.08-.11-2.18-.17-3.26.1-1.2.29-2.16.99-3.04,1.82-2.39,2.24-3.88,5.13-5.28,8.07-.81,1.69-1.54,3.42-2.32,5.13-.08.18-.13.4-.44.49-.12-.78.06-1.53.17-2.25.29-1.93.84-3.81,1.7-5.56.83-1.7,1.78-3.33,2.92-4.85.9-1.19,1.89-2.26,2.94-3.29.39-.39.87-.68,1.31-.97,1.23-.82,2.49-1.66,4.11-1.73Z" style="fill: #0073bc; stroke-width: 0px;"/>
    <path d="m425.4,49.71c.2,1.37.25,2.67.47,3.96.41,2.4.89,4.76,2.25,6.82.75,1.13,1.67,2.02,2.86,2.69,1.4.8,2.83.78,4.32.57.68-.09,1.37-.16,2.24-.25-.95.77-1.79,1.33-2.8,1.65-.45.14-.96.04-1.36.44-.18.18-.63.16-.82,0-.37-.3-.8-.29-1.2-.41-1.09-.31-1.88-1.06-2.63-1.87-1.51-1.63-2.42-3.62-3.19-5.7-.94-2.56-1.53-5.21-1.84-7.93-.29-2.52-.38-5.04.34-7.51.16-.55.28-1.14.77-1.58.23,3.04.47,6.02.59,9.09Z" style="fill: #0073bc; stroke-width: 0px;"/>
  </g>
  <g>
    <path d="m632.11,33.25c-.21.46-.14.89-.16,1.3-.19,3.97-.81,7.87-1.8,11.7-.98,3.8-2.38,7.45-4.15,10.94-1.45,2.87-3.17,5.56-5.21,8.03-.94,1.14-2.01,2.16-3.2,2.99-.67.46-1.43.83-2.16,1.21-1.61.84-3.3.84-5.01.77-1.38-.06-2.54-.65-3.72-1.36-1.71-1.03-2.93-2.52-3.96-4.18-1.3-2.09-2.24-4.37-2.89-6.77-.79-2.91-1.28-5.87-1.62-8.86-.34-2.92-.54-5.84-.5-8.78.04-2.97.31-5.91.8-8.84.37-2.22.89-4.4,1.51-6.54.58-2.03,1.38-3.99,2.24-5.92,1.1-2.49,2.38-4.88,3.95-7.08,1.08-1.52,2.32-2.91,3.87-3.99.82-.57,1.68-1.03,2.59-1.43,1.79-.8,3.63-.59,5.47-.35.67.48,1.51.53,2.23.96.81.48,1.59.96,2.32,1.57,1.31,1.09,2.24,2.47,3.01,3.98,1.26,2.48,1.83,5.17,2.24,7.92.36,2.37.55,4.76.57,7.16.01,1.83-.04,3.67-.19,5.5-.41,4.77-1.54,9.36-2.96,13.9-.06.19-.16.34-.26.49.21-2.02.39-4.05.62-6.08.31-2.73.64-5.45,1.1-8.16.36-2.13.47-4.28.31-6.46-.13-1.78-.34-3.54-.77-5.25-.71-2.83-1.7-5.56-3.45-7.91-1.16-1.56-2.51-2.87-4.3-3.72-1.7-.81-3.43-.82-5.11-.32-1.95.57-3.69,1.61-5.21,3.1-1.9,1.85-3.14,4.08-4.24,6.46-1.39,3-2.19,6.19-2.93,9.41-.85,3.72-1.42,7.48-1.65,11.29-.15,2.51-.11,5.03.06,7.55.2,3,.7,5.94,1.46,8.83.67,2.56,1.44,5.1,2.75,7.42.82,1.46,1.86,2.65,3.36,3.48,1.5.84,3.05.75,4.59.61,1.6-.15,2.95-1.03,4.27-1.98,1.55-1.13,2.82-2.53,4.02-4,1.47-1.79,2.7-3.76,3.77-5.83,1.5-2.92,2.79-5.93,3.73-9.11.88-3,1.57-6.03,1.88-9.15.35-3.51.54-7.03.41-10.56-.13-3.64-.56-7.24-1.51-10.75-.61-2.28-1.42-4.48-2.7-6.47-.9-1.4-1.96-2.58-3.33-3.55-2.09-1.48-4.39-1.68-6.78-1.52-.85.06-1.71.15-2.54.44-1.56.54-3.02,1.27-4.31,2.34-3.42,2.84-5.58,6.61-7.31,10.69-1.53,3.61-2.55,7.38-3.23,11.25-.34,1.95-.47,3.93-.58,5.91-.17,2.82-.08,5.64-.22,8.45-.12,2.63-.08,5.27-.42,7.9-.06-.54-.15-1.08-.19-1.62-.23-2.86-.52-5.73-.66-8.59-.12-2.46-.15-4.92.07-7.38.15-1.68.21-3.37.43-5.04.56-4.31,1.44-8.53,3.04-12.58,1.09-2.78,2.57-5.31,4.33-7.67.98-1.31,2.13-2.51,3.39-3.54.83-.68,1.73-1.31,2.67-1.87.9-.54,1.85-.96,2.82-1.34.57-.23,1.25-.11,1.76-.57.07-.06.22-.03.34-.03.49-.01.98.02,1.47-.04,1.49-.17,2.89.29,4.25.76,1.4.49,2.65,1.33,3.79,2.34.82.73,1.57,1.5,2.24,2.38,1.3,1.71,2.24,3.61,3.02,5.61.93,2.39,1.45,4.88,1.79,7.42.28,2.05.44,4.12.64,6.23.05,2.31.05,4.57.05,6.91Z" style="fill: #0073bc; stroke-width: 0px;"/>
    <path d="m618.47,11.2c1.32.68,2.4,1.57,3.28,2.71.79,1.01,1.39,2.14,1.88,3.33,1.04,2.51,1.65,5.13,1.94,7.85.15,1.38.23,2.77.26,4.16.05,2.13-.28,4.25-.53,6.36-.3,2.49-.73,4.96-1.32,7.4-.94,3.87-2.21,7.61-4.17,11.08-1.08,1.91-2.29,3.72-3.69,5.38-.95,1.12-2,2.18-3.19,3.01-1.04.72-2.21,1.18-3.54.95-.57-.1-1.01-.43-1.42-.75-.89-.7-1.52-1.64-1.96-2.74,1.18.89,2.67.59,4.02,1.16.18-.04.34-.33.67-.32,1.64.05,2.79-.89,3.8-2.06,1.28-1.49,2.13-3.25,2.91-5.05.91-2.1,1.77-4.21,2.63-6.33,1.1-2.7,1.89-5.49,2.44-8.37.69-3.61.81-7.24.63-10.88-.15-2.98-.55-5.94-1.4-8.81-.49-1.67-1.22-3.25-2.59-4.37-.66-.53-1.41-.98-2.29-1.09-1.12-.14-2.23-.19-3.34.03-1.25.25-2.24.97-3.15,1.82-2.38,2.24-3.89,5.1-5.28,8.04-.83,1.74-1.59,3.51-2.39,5.27-.07.16-.16.31-.43.47.13-1.19.18-2.3.42-3.4.76-3.48,2.35-6.53,4.45-9.35.89-1.19,1.83-2.33,2.96-3.26.9-.74,1.87-1.4,2.92-1.95,1.81-.95,3.61-.88,5.52-.3Z" style="fill: #0073bc; stroke-width: 0px;"/>
    <path d="m601.73,43.09c.18,1.07.14,2.09.25,3.09.14,1.38.12,2.78.23,4.17.24,3,.54,6,1.53,8.87.53,1.52,1.3,2.9,2.44,3.99,1.61,1.53,3.56,2.16,5.77,1.76.73-.13,1.48-.19,2.24-.22-.78.66-1.57,1.28-2.57,1.56-.49.14-1.01.12-1.47.43-.18.12-.53.09-.76.01-1.04-.36-2.14-.61-2.99-1.39-1.16-1.07-2.08-2.32-2.81-3.73-1.55-2.98-2.4-6.18-2.9-9.49-.35-2.31-.52-4.65-.2-7,.13-.97.39-1.9.75-2.81.05-.13.16-.25.39-.31.03.33.06.66.11,1.07Z" style="fill: #0073bc; stroke-width: 0px;"/>
  </g>
  <g>
    <path d="m470.63.66h26.52c0,22.58,0,45.16-.02,67.74,0,.22-.33.64-.5.64-12.6.03-25.2.03-37.8,0-.17,0-.5-.36-.5-.55-.02-22.61-.02-45.23-.02-67.84,4.01,0,8.01,0,12.11.09-.26,3.44-.29,6.93-1.06,10.1-2.01,8.27-4.31,16.41-6.55,24.58-2.22,8.12-3.76,16.28-1.58,24.9.28,1.11.58,1.39,1.45,1.18,2.51-.63,5.04-1.54,7.56-1.55,4.38-.01,8.75.59,13.13.9,3.23.23,7.4-.65,8.96-1.84-.32-.09-.63-.18-.94-.25-6.54-1.6-13.14-1.95-19.78-1.5-1.87.13-2.04-.35-1.26-2.62,3.75-10.86,6.83-22.02,8.38-33.85.41-3.1.15-6.1-1.17-9.09-.15,1.75-.11,3.31-.43,4.72-1.36,5.96-2.75,11.9-4.27,17.79-1.89,7.29-4.32,14.37-4.68,22.24-.02.44-.65,1-1.07,1.15-.19.07-.69-.67-.81-1.15-.35-1.42-.59-2.9-.87-4.36-.54,1.9-.68,3.71-.94,5.48-.1.64-.5,1.2-.77,1.8-.25-.64-.68-1.25-.73-1.91-.37-5.34-.1-10.64,1.26-15.71,1.93-7.18,4.07-14.26,5.96-21.45,1.7-6.45,2.88-13.01.39-19.66Zm3.4,3.99c-.34-.64-.69-1.28-1.16-2.15.51,14.29-4.41,26.98-5.3,40.74,2.68-6.93,5.31-13.88,7.45-21.1,1.72-5.8,1.46-11.77-.99-17.49Zm12.5,61.96c-4.26-.2-8.54-.22-12.79-.66-3.8-.39-7.58-1.37-11.33.2-1.27.53-2.47,1.38-3.3,1.85,2.77,0,5.83-.03,8.88,0,5.46.05,10.93.3,16.38.16,3.41-.09,6.88-.62,9.8-3.27,1.17-1.06,1.98-2.82,2.95-4.26-.13-.17-.26-.33-.39-.5-2.94,3.31-6.2,5.72-10.2,6.47Zm-4.96-3.63c-1.39-.33-2.78-.67-4.18-.98-4.4-.96-8.81-1.56-13.16.34-1.67.73-3.27,1.67-4.27,3.89,7.52-2.76,15.23-.61,23.14-2.19-.72-.52-1.06-.77-1.52-1.06Zm8.47.9c3.09-.03,6.66-3.62,6.53-6.71-.43.35-.82.69-1.22.99-1.86,1.39-3.73,2.77-5.6,4.15-.38.28-.76.56-1.14.84.44.24.87.48,1.43.74Z" style="fill: none; stroke-width: 0px;"/>
    <path d="m470.59.66c2.53,6.64,1.35,13.2-.35,19.66-1.9,7.19-4.04,14.27-5.96,21.45-1.36,5.07-1.64,10.37-1.26,15.71.05.66.47,1.28.73,1.91.26-.6.67-1.16.77-1.8.27-1.77.4-3.58.94-5.48.28,1.46.52,2.93.87,4.36.12.48.63,1.22.81,1.15.42-.15,1.05-.71,1.07-1.15.36-7.87,2.79-14.95,4.68-22.24,1.52-5.88,2.91-11.83,4.27-17.79.32-1.41.28-2.97.43-4.72,1.32,2.99,1.57,5.99,1.17,9.09-1.55,11.82-4.64,22.98-8.38,33.85-.78,2.27-.61,2.75,1.26,2.62,6.64-.44,13.23-.1,19.78,1.5.31.08.62.16.94.25-1.55,1.18-5.73,2.06-8.96,1.84-4.38-.31-8.75-.91-13.13-.9-2.52,0-5.05.92-7.56,1.55-.87.22-1.18-.07-1.45-1.18-2.18-8.62-.64-16.78,1.58-24.9,2.24-8.17,4.54-16.31,6.55-24.58.77-3.17.8-6.67,1.13-10.1-.03-.09.05-.09.09-.09Z" style="fill: #0073bc; stroke-width: 0px;"/>
    <path d="m474.06,4.71c2.42,5.65,2.68,11.63.96,17.43-2.14,7.22-4.77,14.17-7.45,21.1.88-13.76,5.81-26.46,5.3-40.74.47.87.81,1.51,1.19,2.22Z" style="fill: #0073bc; stroke-width: 0px;"/>
    <path d="m486.59,66.59c3.94-.73,7.2-3.14,10.13-6.45.13.17.26.33.39.5-.97,1.44-1.78,3.2-2.95,4.26-2.92,2.65-6.39,3.18-9.8,3.27-5.46.14-10.92-.1-16.38-.16-3.06-.03-6.11,0-8.88,0,.83-.47,2.03-1.32,3.3-1.85,3.75-1.57,7.53-.59,11.33-.2,4.25.44,8.53.45,12.86.64Z" style="fill: #0073bc; stroke-width: 0px;"/>
    <path d="m481.62,63.01c.4.27.74.51,1.46,1.04-7.9,1.58-15.62-.57-23.14,2.19,1.01-2.22,2.6-3.16,4.27-3.89,4.36-1.9,8.76-1.3,13.16-.34,1.4.31,2.79.65,4.24,1Z" style="fill: #0073bc; stroke-width: 0px;"/>
    <path d="m489.97,63.88c-.5-.25-.93-.49-1.37-.73.38-.28.76-.56,1.14-.84,1.87-1.38,3.74-2.76,5.6-4.15.4-.3.79-.64,1.22-.99.13,3.09-3.43,6.68-6.59,6.71Z" style="fill: #0073bc; stroke-width: 0px;"/>
  </g>
  <g>
    <path d="m509.99,68.38c-1.71-.48-3.35-.92-4.8-2.16-3.36-2.86-4.05-7.51-4.36-12.3-.67-10.36.26-20.39,3.61-29.86.36-1.01.82-1.94,1.25-2.9.06-.13.18-.22.48-.59-.81,4.04-1.62,7.72-2.27,11.45-1.39,8.01-1.88,16.07-.39,24.17,1.59,8.69,5.81,11.37,11.76,7.48,3.23-2.11,5.56-5.6,6.97-9.91,1.1-3.37.46-7.3.79-11-1.63,3.67-3.5,7.04-5.54,10.25-1.43,2.26-3.05,4.11-4.99,5.49-2.09,1.49-3.59.74-4.36-2.36-1.17-4.71-1.65-9.59-1.4-14.52.54-10.69,2.65-20.78,6.66-30.05.98-2.26,1.93-4.59,3.77-6.96-2.77,7.11-4.81,13.82-6.25,20.85-1.71,8.35-2.71,16.84-1.76,25.53.19,1.74.22,3.96,1.75,4.67,1.4.65,2.23-1.12,3.12-2.17,6.66-7.85,10.37-18.12,12.83-29.38,1.48-6.8,2.84-13.65,3-21.17.7,1.49.86,2.82.95,4.17.6,8.95-1.67,17.17-3.5,25.5-1.69,7.69-3.24,15.41-2.59,23.58.27,3.43.83,6.78,1.65,10.05.12.47.19.96.36,1.82-2.12-2.54-2.81-5.78-3.91-9-2.99,5.24-6.8,8.25-11.54,9.24-.45.07-.84.07-1.31.07Z" style="fill: #0073bc; stroke-width: 0px;"/>
    <path d="m535.97,20.27c-.88,7.37-1.91,14.57-3.45,21.62-1.2,5.53-2.49,11.02-3.75,16.52-.12.52-.32,1-.63,1.96-.4-3.7.15-6.78.53-9.87,1.19-9.66,3.79-18.83,5.27-28.38.43-2.76.64-5.58.97-8.49.62,1,.74,2.14,1,3.31.05,1.11.05,2.15.05,3.32Z" style="fill: #0073bc; stroke-width: 0px;"/>
    <path d="m509.09,22.65c-3.02,11.09-4.33,22.3-2.26,33.91.82,4.58,3.05,5.92,6.75,4.13,1.31-.64,2.48-1.65,3.64-2.86-1.06,3.37-4.47,5.87-7.59,5.67-2.35-.15-4.21-2.4-5.05-6.26-2.23-10.2-1.06-20.2,1.1-30.1,1.25-5.7,3.26-10.92,5.69-15.85.62-1.25,1.32-2.43,2.54-3.22-1.77,4.9-3.49,9.57-4.83,14.59Z" style="fill: #0073bc; stroke-width: 0px;"/>
    <path d="m533.64,14.68c-.05,10.73-2.54,20.41-6.16,29.98-.26-3.32.09-6.26.66-9.2,1.77-9.16,3.52-18.33,3.45-27.91,0-.75,0-1.51,0-2.52,2.11,2.81,1.95,6.22,2.05,9.66Z" style="fill: #0073bc; stroke-width: 0px;"/>
    <path d="m527.27,60.22c.22,2.72.56,5.29,1.39,7.79-2.65-1.49-4.17-11.51-2.3-15.11.57,2.42.75,4.81.91,7.33Z" style="fill: #0073bc; stroke-width: 0px;"/>
  </g>
  <g>
    <path d="m591.16,20.38c-.45,5.11-1.25,9.98-2.18,14.84-1.34,7.02-3.13,13.82-4.82,20.68-.36,1.48-.91,2.87-1.84,4.26-.05-6.29.8-12.09,2.08-17.81,1.67-7.47,3.32-14.95,4.86-22.47.48-2.34.62-4.82.94-7.44.66,1.12.61,2.29.9,3.4.06,1.52.06,2.97.06,4.55Z" style="fill: #0073bc; stroke-width: 0px;"/>
    <path d="m583.48,23.25c-1.93,8.52-4.21,16.8-5.05,25.6-.62,6.53,0,12.92,1.73,19.08.03.12.05.25.08.4-1.88-1.55-3.69-6.61-4.06-11.08-.78-9.44.88-18.27,3.23-27.04,1.98-7.37,3.61-14.92,4.73-22.64.27-1.86.04-3.86.04-6.05,1.69,3.14,2.12,10.83-.71,21.72Z" style="fill: #0073bc; stroke-width: 0px;"/>
    <path d="m585.61,17.45c.74-4.41,1.5-8.7.69-13.57,1.58,1.63,1.75,3.71,2.04,5.67,1.24,8.37-.65,16.03-2.98,23.55-1.1,3.55-2.34,7.02-3.64,10.48-.09-9.07,2.84-17.27,3.89-26.12Z" style="fill: #0073bc; stroke-width: 0px;"/>
    <path d="m579.39,59.99c.06-2.12.06-4.14.58-6.36,1.53,4.89,1.24,10.08,2.62,14.72-1.59-.63-2.64-3.33-3.2-8.36Z" style="fill: #0073bc; stroke-width: 0px;"/>
  </g>
  <g>
    <path d="m681.67,13.51c-.59,5.96-1.43,11.72-3.01,17.31-2.72,9.63-5.15,19.35-6.66,29.35-.41,2.73-.53,5.53-.8,8.56-.44-1.6-1.19-2.72-2.42-3.15-4.38-1.55-6.29-5.62-7.92-10.57,3.23,3,4.91,7.47,8.87,9.36,0-4.39-.05-8.59.63-12.74,1.39-8.52,4.41-16.47,6.28-24.82,1.75-7.84,2.77-15.81,3.69-23.82.04-.38.16-.76.43-1.96.33,3.04.56,5.24.85,7.55.05,1.67.05,3.23.05,4.93Z" style="fill: #0073bc; stroke-width: 0px;"/>
    <path d="m651.52,13.85c-.53-3.2-1.61-5.97-3.63-8.65,2.02.6,3.22,1.86,4.06,3.4,6.04,11.2,8.63,23.31,6.87,36.52-.04.29-.16.57-.33,1.17-1.48-3.79-1.89-7.57-2.3-11.34-.42-3.81-.78-7.63-2.1-12.15-.48,17.29.68,32.94,12.92,43.64-6.32-2.17-12.73-8.48-15.3-26.93-3.7,10.06-6.98,19.76-9.56,30.27-.99-4.16-.51-7.81.35-11.41,1.83-7.72,4.98-14.86,7.28-22.37,2.19-7.15,2.95-14.49,1.74-22.15Z" style="fill: #0073bc; stroke-width: 0px;"/>
    <path d="m660.38,20.87c2.2,6.64,2.5,13.63,3.74,21.42.74-6.61,1.87-12.11,3.74-17.37,1.89-5.31,4.26-10.3,7.48-14.79-1.47,4.78-2.91,9.57-4.41,14.33-1.52,4.83-2.97,9.69-3.93,14.73-.96,5.03-1.47,10.08-.97,16.13,1.72-10.26,2.39-19.98,7.62-28.48-.03,4.32-1.65,7.75-2.34,11.43-.7,3.71-1.28,7.46-1.87,11.2-.6,3.81-.8,7.67-.84,11.68-1.37-.04-2.19-.93-2.86-2.02-3.06-5.02-4.09-10.92-5.05-16.78-1.33-8.1-.77-16.48-2.43-24.55-.16-.79-.34-1.57-.23-2.5.77,1.82,1.53,3.64,2.33,5.57Z" style="fill: #0073bc; stroke-width: 0px;"/>
    <path d="m641.58,42.24c-1.57,5.45-3.39,10.67-4.47,16.45-1.39-5.06,6.54-40.45,9.95-44.8.62,10.11-2.75,19.08-5.48,28.35Z" style="fill: #0073bc; stroke-width: 0px;"/>
    <path d="m645.29,44.09c-1.98,7.76-4.2,15.32-4.77,23.38-1.11-.74-1.69-2.21-1.62-4.69.25-8.73,2.34-16.89,5.62-24.69,1.06-2.52,1.97-5.11,3.26-8.46-.42,5.47-1.31,9.94-2.49,14.47Z" style="fill: #0073bc; stroke-width: 0px;"/>
    <path d="m676.13,16.07c-.01-.37-.02-.63.01-.88.61-4.94,1.21-9.87,1.83-14.84,2.65,1.91,1.42,12.25-1.84,15.72Z" style="fill: #0073bc; stroke-width: 0px;"/>
    <path d="m649.72,19.86c-1.09-2.53-1.05-5.42-1.71-8.13-.44-1.81-.9-3.6-1.34-5.4,3.18,1.49,4.78,8.35,3.05,13.52Z" style="fill: #0073bc; stroke-width: 0px;"/>
  </g>
  <g>
    <path d="m48,12.67c-3.2-2.62-5.87-5.79-10.87-6.73-9.24-1.73-16.15,1.28-21.43,6.99C2.81,26.9-.5,42.32,6.12,58.92c2.01,5.05,6.79,8.15,13.35,9.45-2.76.86-7.08-.39-10.77-3.05C2.11,60.57.7,54.14.18,47.56-.99,32.9,3.47,19.6,15.91,8.5c8.11-7.23,24.73-6.9,30.41.47.67.87,1.03,1.9,1.6,2.93.07.27.07.47.07.76Z" style="fill: #0073bc; stroke-width: 0px;"/>
    <path d="m40.62,16.41c-4.27-4.03-11.89-3.76-16.86,1.14-11.28,11.13-14.33,23.9-9.74,37.69,1.91,5.75,9.09,7.67,17.2,5.23,1.5-.45,2.96-.97,4.75-1.55-5.74,5.59-19.81,7.29-24.43-2.18-6.13-12.55-.87-32.97,11.28-42.28,5.42-4.15,13.39-4.73,18.07-1.32,3.05,2.22,3.83,6.28,1.72,9.78-1.68,2.79-4.28,4.5-8.54,4.14,6.91-3.66,8.98-7.02,6.54-10.65Z" style="fill: #0073bc; stroke-width: 0px;"/>
    <path d="m18.85,11.52c7.44-5.59,16.95-6.71,23.17-2.78,7.07,4.45,7.14,14.05.15,18.58-.9.58-1.9,1-3.41.83.73-.55,1.33-.99,1.91-1.45,4.67-3.71,5.56-8.59,2.35-12.83-2.78-3.68-8.33-5.01-14.47-3.34-8.66,2.36-12.76,8.23-16.61,14.24-2.35,3.67-3.64,7.67-5.45,11.51.45-9.4,3.78-17.87,12.37-24.77Z" style="fill: #0073bc; stroke-width: 0px;"/>
    <path d="m18.32,65.24c8.32.58,14.99-1.84,20.5-6.74-.47,2.88-4.95,6.05-10.93,7.84-4.51,1.35-9.62.79-12.77-1.47,1.11.13,2.08.24,3.2.37Z" style="fill: #0073bc; stroke-width: 0px;"/>
  </g>
  <g>
    <path d="m68.81,45.84c-.99-.41-2.26-.03-2.89-1.5h18.9c-.2-.72-.52-1.1-1.07-1.1-6.12.01-12.08-1.64-18.21-1.55-5.63.09-10.64,1.75-14.96,5.41-.28.24-.61.42-1.36.94,1.74-2.77,3.27-5.12,5.86-6.09,3.3-1.24,5.04-3.67,6.49-6.63,3.46-7.03,7.37-13.81,11.44-20.5.34-.57.6-1.23,1.45-1.66-.44,2.74-1.23,5.22-2.19,7.66-2.33,5.94-5.7,11.35-8.69,16.95-.2.37-.86.84-.17,1.27.68.42,1.22,0,1.63-.58,1.86-2.6,3.66-5.24,5.82-7.62.28-.3.54-.62,1.03-.77-1.08,2.57-2.19,5.13-3.24,7.7-.16.4-.74.93-.1,1.31.64.38,1.5.48,1.93-.28,3.9-7,8.44-13.76,8.54-22.23.01-1.32-.24-2.48-.81-3.66-.58,2.14-1.11,4.07-1.64,6-.66-5.06,1.18-10.34-1.5-15.24,1.74,1.14,2.73,2.75,3.58,4.47,3.52,7.16,4.97,14.89,6.33,22.66,1.45,8.28,2.53,16.65,6.04,24.43,2.06,4.56,4.8,8.58,8.78,11.67.31.24.59.51,1.26,1.11-3.33-1.22-5.78-2.86-7.79-5.14-3.02-3.42-5.1-7.37-6.51-11.68-.4-1.23-.89-1.61-2.25-1.14-4.54,1.57-9.24.98-13.88.65-2.99-.21-4.85.86-6.14,3.59-1.93,4.11-4.47,7.91-6.36,12.57-.35-6.38,3.1-11.04,5.17-16.15-1.11-.52-1.51.09-1.86.89-1.95,4.43-3.95,8.84-5.23,13.81-1.7-5.43.05-10.31,1.47-15.67-2.1,2.18-2.48,4.71-3.54,6.96-2.14-3.79,1.31-8.74,5.98-8.9,6.38-.22,12.68.81,19.02,1.11,1.79.08,3.59-.01,5.38-.08.5-.02,1.03-.2.95-.91-.08-.66-.57-.67-1.05-.6-5.29.71-10.42-.2-15.61-1.48Zm10.99-20.22c-1.66,4.8-4.29,9.18-6.39,14.02,3.55.37,6.85,1.15,10.36.88-1-5.85-1.96-11.49-3.01-17.64-.42,1.2-.66,1.89-.95,2.74Z" style="fill: #0073bc; stroke-width: 0px;"/>
    <path d="m93.84,27.26c1.59,6.11,2.52,12.25,3.43,18.4.69,4.66,1.5,9.3,2.68,13.87.11.44.13.9.27,1.89-2.01-2.84-3.24-5.46-4.19-8.22-2.3-6.69-3.12-13.67-4.04-20.62-.94-7.09-2.3-14.05-5.27-20.61-.1-.22-.16-.46-.25-.73,2.13.75,5.43,7.94,7.37,16.03Z" style="fill: #0073bc; stroke-width: 0px;"/>
    <path d="m83.32,15.61c-1.27-4.04-3.42-7.57-5.38-11.29,1.91.65,3.57,2.38,5.31,5.21,4.03,6.55,5.47,13.92,6.89,21.31.8,4.13,1.34,8.28,1.32,12.5,0,.46.08.95-.39,1.46-1.22-2.88-2.06-5.81-2.78-8.77-1.53-6.33-2.43-12.8-4.5-19-.15-.44-.3-.88-.47-1.4Z" style="fill: #0073bc; stroke-width: 0px;"/>
    <path d="m102.8,66.88c-4.95-2.15-9.1-7.97-8.81-12.66,2.69,4.77,5.2,9.36,9.67,12.36-.16.51-.49.38-.86.3Z" style="fill: #0073bc; stroke-width: 0px;"/>
    <path d="m50.5,48.86c1.89-2.49,6.04-4.32,8.44-3.64-3.13,1.82-6.15,3.58-9.52,5.55.47-.83.75-1.34,1.08-1.91Z" style="fill: #0073bc; stroke-width: 0px;"/>
  </g>
  <g>
    <path d="m134.37,50.77c-4.7-3.36-9.23-6.82-14.84-8.34-1.53-.41-1.61-1.37-1.38-2.74,1.24-7.36,4-14.35,5.34-21.67.82-4.44,1.93-8.97.8-13.59,4.05,2.24,3.41,12.66-1.69,28.27,1.54-.47,2.27-1.93,3.22-6,.56-2.42,1.36-4.78,1.88-7.21.5-2.34.78-4.73,1.26-7.78,1.91,5.13.79,9.61.2,14.64,9.99-7.54,21.61-11.66,29.83-20.86.21,1.44-1.44,4.28-3.92,6.72-4.93,4.86-11.04,7.96-16.96,11.34-5.64,3.22-10.44,7.45-15.02,11.99-.28.28-.53.6-.78.91-2.59,3.2-2.33,4.47,1.54,5.09,7.41,1.19,11.98,6.49,17.07,11.13,1.92,1.75,3.95,3.37,5.46,5.54-4.9-1.23-8.18-4.67-12.03-7.44Z" style="fill: #0073bc; stroke-width: 0px;"/>
    <path d="m138.31,44.45c8.5,5.1,14.4,12.84,21.31,19.51-5.27-1.64-9.17-5.24-13.17-8.72-4.65-4.05-8.79-8.71-14.1-11.99-1.95-1.2-4.02-2.13-6.68-2.77,9.85-9.98,23.46-14.14,33.28-23.83.12,2.16-1.12,3.43-2.35,4.65-7.76,7.68-17.02,13.08-26.84,17.63-.35.16-.7.33-1.57.75,3.79,1.33,7.09,2.68,10.12,4.78Z" style="fill: #0073bc; stroke-width: 0px;"/>
    <path d="m152.68,67.48c-9.42-2.56-16.52-8.56-23.45-14.83-1.33-1.2-2.77-2.3-4.01-3.58-1.76-1.83-2.51-1.22-3.09.93-.64,2.38-1.48,4.71-2.52,7.97-.69-3.21-.25-5.37.32-7.41.81-2.9,1.88-5.69-2.72-6.67,3.73-.36,6.41,1.4,9.05,3.05,6.24,3.9,11.22,9.39,17.16,13.68,4.1,2.96,8.67,4.8,13.54,5.97.45.11.93.07,1.74.12-1.46-2.52-4.18-.97-5.68-2.42,1.4-.64,11.28,1.64,12.03,2.87-4.08,1.64-8.15,1.39-12.38.34Z" style="fill: #0073bc; stroke-width: 0px;"/>
    <path d="m113.41,36.5c2.62-9.03,5.27-17.92,7.71-26.87.61-2.25.51-4.69.75-7.2,1.17,1.1,1.07,2.52,1.16,3.84.59,8.59-2.51,16.43-4.98,24.4-2.73,8.82-5.33,17.65-3.39,27.07.51,2.49,1.39,4.84,2.26,7.15-7.15-8.63-5.99-18.37-3.5-28.39Z" style="fill: #0073bc; stroke-width: 0px;"/>
    <path d="m138.07,28.53c-1.36.59-2.61,1.14-4.57,2,8.5-8.33,19.48-12.43,26.46-22.37-.12,4.56-1.83,7.61-4.53,10.08-5.03,4.59-11.03,7.62-17.35,10.28Z" style="fill: #0073bc; stroke-width: 0px;"/>
    <path d="m115.94,57.48c-.07-2.22-.27-4.31.94-6.96,1,5.27,1.14,10.11,3.6,15.15-3.5-2.23-4.09-5.1-4.54-8.18Z" style="fill: #0073bc; stroke-width: 0px;"/>
    <path d="m128.11,33.85c.15.02.24.04.24.05-.35,2.59-2.62,4.1-3.62,6.36-.41.93-1.54.59-2.57.07,1.64-2.5,3.26-4.91,5.95-6.48Z" style="fill: #0073bc; stroke-width: 0px;"/>
  </g>
</svg>